<svg xmlns="http://www.w3.org/2000/svg" viewBox="0 0 1024 1024">
  <path
    d="M511.953 76.651c-240.797 0-436.007 195.209-436.007 436.008 0 240.795 195.209 436.003 436.007 436.003 240.795 0 436.003-195.208 436.003-436.003.054-240.799-195.154-436.008-436.003-436.008zm196.186 573.261c16.287 16.286 16.287 42.65 0 58.931-16.281 16.287-42.645 16.287-58.931 0l-137.475-137.42-137.474 137.42c-16.284 16.287-42.645 16.287-58.932 0-16.283-16.286-16.283-42.649 0-58.931l137.528-137.474-137.474-137.421c-16.283-16.283-16.283-42.646 0-58.932 16.286-16.283 42.649-16.283 58.932 0l137.42 137.474 137.474-137.474c16.286-16.283 42.649-16.283 58.931 0 16.287 16.286 16.287 42.649 0 58.932L570.719 512.438l137.42 137.474z"
    fill="currentColor" />
</svg>
